<mxfile host="Electron" agent="Mozilla/5.0 (Windows NT 10.0; Win64; x64) AppleWebKit/537.36 (KHTML, like Gecko) draw.io/26.2.2 Chrome/134.0.6998.178 Electron/35.1.2 Safari/537.36" version="26.2.2">
  <diagram name="Page-1" id="2EEF0pgCzvWfPoQAUIKj">
    <mxGraphModel dx="643" dy="681" grid="1" gridSize="10" guides="1" tooltips="1" connect="1" arrows="1" fold="1" page="1" pageScale="1" pageWidth="3300" pageHeight="4681" math="0" shadow="0">
      <root>
        <mxCell id="0" />
        <mxCell id="1" parent="0" />
        <mxCell id="4nn9RI2v3VJbAuyYItF7-3" value="" style="group" vertex="1" connectable="0" parent="1">
          <mxGeometry x="400" y="280" width="120" height="120" as="geometry" />
        </mxCell>
        <mxCell id="4nn9RI2v3VJbAuyYItF7-2" value="" style="ellipse;whiteSpace=wrap;html=1;fillColor=#f5f5f5;strokeColor=default;fontColor=#333333;strokeWidth=2;" vertex="1" parent="4nn9RI2v3VJbAuyYItF7-3">
          <mxGeometry width="120" height="120" as="geometry" />
        </mxCell>
        <mxCell id="4nn9RI2v3VJbAuyYItF7-1" value="" style="shape=mxgraph.signs.healthcare.brain;html=1;pointerEvents=1;fillColor=#f8cecc;strokeColor=default;verticalLabelPosition=bottom;verticalAlign=top;align=center;" vertex="1" parent="4nn9RI2v3VJbAuyYItF7-3">
          <mxGeometry x="22.153846153846153" y="25.384615384615387" width="73.84615384615385" height="69.23076923076924" as="geometry" />
        </mxCell>
      </root>
    </mxGraphModel>
  </diagram>
</mxfile>
